<svg width="19" height="19" viewBox="0 0 19 19" fill="none" xmlns="http://www.w3.org/2000/svg">
<path d="M9.375 0C4.19844 0 0 4.19844 0 9.375C0 14.5516 4.19844 18.75 9.375 18.75C14.5516 18.75 18.75 14.5516 18.75 9.375C18.75 4.19844 14.5539 0 9.375 0ZM4.625 9.68984L4.66484 9.62656L7.10469 5.81094C7.11286 5.7984 7.12425 5.78828 7.13767 5.78164C7.15109 5.775 7.16604 5.77209 7.18097 5.77321C7.1959 5.77433 7.21025 5.77943 7.22253 5.78799C7.23481 5.79655 7.24457 5.80826 7.25078 5.82188C7.65703 6.73516 8.01016 7.87109 7.84453 8.57812C7.77578 8.86875 7.58281 9.2625 7.36484 9.62656C7.33688 9.67982 7.30638 9.7317 7.27344 9.78203C7.26555 9.79326 7.25499 9.80235 7.24272 9.80848C7.23045 9.81462 7.21684 9.81761 7.20312 9.81719H4.69766C4.6827 9.81742 4.66796 9.8136 4.65501 9.80612C4.64205 9.79865 4.63136 9.78781 4.62407 9.77475C4.61678 9.76169 4.61316 9.7469 4.6136 9.73195C4.61404 9.717 4.61852 9.70245 4.62656 9.68984H4.625ZM15.4953 11.0023C15.4955 11.019 15.4908 11.0354 15.4818 11.0494C15.4727 11.0635 15.4598 11.0745 15.4445 11.0813C15.2547 11.1617 14.6086 11.4602 14.3398 11.8328C13.6539 12.7875 13.1305 14.1531 11.9586 14.1531H7.07266C6.66013 14.1525 6.25177 14.0706 5.8709 13.9121C5.49004 13.7536 5.14415 13.5216 4.85299 13.2293C4.56184 12.9371 4.33112 12.5903 4.17404 12.2089C4.01695 11.8274 3.93658 11.4188 3.9375 11.0063V10.95C3.9375 10.9047 3.975 10.8672 4.02187 10.8672H6.74453C6.79922 10.8672 6.83828 10.9164 6.83437 10.9703C6.81406 11.1469 6.84766 11.3289 6.93203 11.4937C7.09297 11.8219 7.42891 12.0266 7.79063 12.0266H9.13906V10.9742H7.80469C7.78905 10.9741 7.77376 10.9696 7.76045 10.9614C7.74715 10.9532 7.73633 10.9415 7.72918 10.9276C7.72203 10.9137 7.7188 10.8981 7.71986 10.8825C7.72091 10.8669 7.7262 10.8519 7.73516 10.8391L7.78437 10.7688C7.90937 10.5883 8.08984 10.3109 8.26953 9.99375C8.39141 9.77969 8.51016 9.55156 8.60547 9.32188C8.62422 9.28125 8.63906 9.23828 8.65625 9.19688C8.68203 9.12344 8.70859 9.05469 8.72734 8.98672C8.74574 8.92909 8.76268 8.87099 8.77812 8.8125C8.82266 8.61719 8.84141 8.41094 8.84141 8.19766C8.84141 8.11328 8.83828 8.025 8.83047 7.94219C8.82656 7.85078 8.81484 7.75859 8.80391 7.66719C8.79517 7.5854 8.78266 7.50407 8.76641 7.42344C8.74538 7.30066 8.71984 7.17871 8.68984 7.05781L8.67891 7.01094C8.65547 6.92656 8.63516 6.84687 8.60859 6.76328C8.5342 6.50657 8.44871 6.2532 8.35234 6.00391C8.31877 5.91013 8.28176 5.81762 8.24141 5.72656C8.18516 5.5875 8.12734 5.46172 8.075 5.34375C8.04896 5.29321 8.02446 5.24188 8.00156 5.18984C7.97615 5.1337 7.94932 5.07822 7.92109 5.02344C7.90234 4.98203 7.87969 4.94219 7.86484 4.90469L7.7 4.60156C7.67734 4.56016 7.71484 4.50938 7.76016 4.52266L8.79141 4.80156H8.79922L8.93437 4.84063L9.08438 4.88281L9.13906 4.89766V4.28594C9.13906 3.98984 9.375 3.75 9.66953 3.75C9.73908 3.74981 9.80795 3.7637 9.87199 3.79082C9.93603 3.81794 9.99393 3.85773 10.0422 3.90781C10.1419 4.00842 10.1981 4.14426 10.1984 4.28594V5.19531L10.3086 5.22578C10.3164 5.22969 10.3258 5.23359 10.3328 5.23906C10.3594 5.25781 10.3984 5.2875 10.4477 5.325C10.4867 5.35469 10.5281 5.39219 10.5766 5.43203C10.7308 5.55772 10.8804 5.68906 11.025 5.82578C11.1922 5.98125 11.3797 6.16328 11.5594 6.36562C11.6102 6.42344 11.6586 6.47969 11.7094 6.54219C11.7578 6.60391 11.8125 6.66406 11.8578 6.72344C11.9195 6.80469 11.9828 6.88906 12.0414 6.97656C12.0672 7.01797 12.0992 7.06094 12.1234 7.10234C12.1984 7.21328 12.2625 7.32734 12.3242 7.44219C12.3508 7.49453 12.3766 7.55234 12.3992 7.60859C12.4688 7.7625 12.5234 7.91797 12.557 8.07578C12.5681 8.10928 12.5757 8.14384 12.5797 8.17891V8.18672C12.5906 8.23125 12.5945 8.28047 12.5984 8.33047C12.6204 8.56138 12.5922 8.79432 12.5156 9.01328C12.4914 9.07891 12.4688 9.14609 12.4391 9.21172C12.3805 9.34453 12.3133 9.47969 12.2328 9.60391C12.2063 9.65078 12.1742 9.69922 12.1445 9.74609C12.1109 9.79531 12.075 9.84219 12.0453 9.88672C12.0024 9.94588 11.9573 10.0035 11.9102 10.0594C11.8687 10.1156 11.8273 10.1719 11.7805 10.2227C11.7172 10.2992 11.6555 10.3711 11.5891 10.4398C11.5516 10.4852 11.5109 10.532 11.4672 10.5727C11.4266 10.6195 11.3828 10.6609 11.3453 10.6984C11.2797 10.7641 11.2281 10.8133 11.1828 10.8562L11.0758 10.9516C11.0609 10.9665 11.0406 10.9749 11.0195 10.975H10.1984V12.0266H11.2313C11.4617 12.0266 11.6813 11.9453 11.8594 11.7937C11.9195 11.7414 12.1836 11.5125 12.4969 11.1672C12.5071 11.1554 12.5208 11.1472 12.5359 11.1438L15.3875 10.318C15.4 10.3143 15.4132 10.3137 15.426 10.316C15.4389 10.3183 15.451 10.3236 15.4614 10.3314C15.4719 10.3392 15.4803 10.3493 15.4862 10.3609C15.4921 10.3726 15.4952 10.3854 15.4953 10.3984V11.0023Z" fill="white"/>
</svg>
