<svg width="19" height="15" viewBox="0 0 19 15" fill="none" xmlns="http://www.w3.org/2000/svg">
<path d="M16.1227 1.50938C14.9274 0.970322 13.6461 0.571885 12.3063 0.345322C12.2943 0.343032 12.282 0.344508 12.2709 0.349547C12.2599 0.354586 12.2506 0.362938 12.2445 0.373447C12.0805 0.661729 11.8977 1.03751 11.7695 1.33438C10.3485 1.12207 8.90384 1.12207 7.48282 1.33438C7.34011 1.00537 7.17919 0.68456 7.00079 0.373447C6.99474 0.362809 6.9856 0.354268 6.97457 0.348963C6.96354 0.343659 6.95116 0.341844 6.93907 0.34376C5.60001 0.570322 4.31876 0.96876 3.12267 1.5086C3.11238 1.51292 3.10365 1.52028 3.09767 1.5297C0.666416 5.10392 9.26852e-06 8.58985 0.327353 12.032C0.328264 12.0405 0.330881 12.0486 0.335044 12.056C0.339208 12.0634 0.344831 12.0699 0.351572 12.075C1.77063 13.1082 3.3534 13.8952 5.0336 14.4031C5.04532 14.4067 5.05784 14.4067 5.06955 14.4031C5.08126 14.3995 5.0916 14.3924 5.09923 14.3828C5.46079 13.8993 5.78118 13.3863 6.05704 12.8492C6.06087 12.8419 6.06308 12.8338 6.06351 12.8255C6.06395 12.8173 6.0626 12.809 6.05956 12.8013C6.05653 12.7936 6.05187 12.7866 6.04591 12.7809C6.03995 12.7751 6.03282 12.7707 6.02501 12.768C5.52033 12.5779 5.03133 12.3486 4.56251 12.082C4.55409 12.0772 4.54699 12.0704 4.54185 12.0622C4.53672 12.054 4.5337 12.0446 4.53308 12.0349C4.53246 12.0252 4.53426 12.0155 4.5383 12.0067C4.54235 11.9979 4.54852 11.9902 4.55626 11.9844C4.6547 11.9117 4.75313 11.8359 4.84688 11.7602C4.85532 11.7534 4.86549 11.749 4.87625 11.7476C4.88701 11.7463 4.89794 11.7479 4.90782 11.7524C7.97579 13.1305 11.2984 13.1305 14.3305 11.7524C14.3404 11.7476 14.3514 11.7458 14.3623 11.747C14.3733 11.7483 14.3836 11.7525 14.3922 11.7594C14.4859 11.8359 14.5836 11.9117 14.6828 11.9844C14.6906 11.9901 14.6969 11.9977 14.7011 12.0064C14.7053 12.0152 14.7072 12.0248 14.7067 12.0345C14.7063 12.0441 14.7034 12.0536 14.6984 12.0619C14.6934 12.0702 14.6865 12.0771 14.6781 12.082C14.2109 12.3508 13.725 12.5781 13.2149 12.7672C13.207 12.77 13.1999 12.7745 13.1939 12.7803C13.188 12.7862 13.1833 12.7932 13.1803 12.801C13.1772 12.8087 13.1759 12.817 13.1763 12.8254C13.1768 12.8337 13.179 12.8418 13.1828 12.8492C13.4641 13.3859 13.7859 13.8969 14.1399 14.382C14.1472 14.392 14.1575 14.3994 14.1692 14.4034C14.181 14.4073 14.1936 14.4075 14.2055 14.4039C15.8886 13.8974 17.4739 13.11 18.8945 12.075C18.9015 12.0702 18.9073 12.0639 18.9116 12.0566C18.9159 12.0493 18.9186 12.0412 18.9195 12.0328C19.3102 8.05313 18.2649 4.59532 16.1469 1.53126C16.1417 1.5213 16.1331 1.51354 16.1227 1.50938ZM6.51564 9.93595C5.5922 9.93595 4.83048 9.10079 4.83048 8.07657C4.83048 7.05157 5.57735 6.2172 6.51564 6.2172C7.46095 6.2172 8.21563 7.0586 8.20079 8.07657C8.20079 9.10157 7.45392 9.93595 6.51564 9.93595ZM12.7461 9.93595C11.8219 9.93595 11.0609 9.10079 11.0609 8.07657C11.0609 7.05157 11.807 6.2172 12.7461 6.2172C13.6914 6.2172 14.4461 7.0586 14.4313 8.07657C14.4313 9.10157 13.6922 9.93595 12.7461 9.93595Z" fill="white"/>
</svg>
