<svg width="19" height="16" viewBox="0 0 19 16" fill="none" xmlns="http://www.w3.org/2000/svg">
<path d="M18.9452 2.26141C18.2686 2.56203 17.5417 2.76516 16.7776 2.85697C17.566 2.38392 18.1559 1.63941 18.4371 0.762343C17.6964 1.20352 16.8856 1.51406 16.0402 1.68047C15.4716 1.0718 14.7186 0.668358 13.8979 0.532791C13.0773 0.397223 12.235 0.537111 11.5017 0.930736C10.7685 1.32436 10.1854 1.9497 9.84292 2.70966C9.50046 3.46963 9.41781 4.3217 9.6078 5.13359C8.10682 5.05803 6.63846 4.66685 5.29801 3.98545C3.95756 3.30405 2.77498 2.34766 1.82703 1.17834C1.5029 1.73897 1.31652 2.38897 1.31652 3.08122C1.31616 3.7044 1.46921 4.31804 1.7621 4.86769C2.05499 5.41734 2.47866 5.886 2.99552 6.23209C2.3961 6.21297 1.80991 6.05057 1.28573 5.75841V5.80716C1.28567 6.68119 1.5872 7.52834 2.13915 8.20484C2.69111 8.88134 3.45949 9.34554 4.31393 9.51866C3.75786 9.66955 3.17488 9.69178 2.60899 9.58366C2.85007 10.3357 3.31965 10.9934 3.95201 11.4645C4.58436 11.9357 5.34784 12.1968 6.13554 12.2113C4.79837 13.2638 3.14696 13.8347 1.44698 13.8322C1.14585 13.8323 0.844971 13.8147 0.545898 13.7794C2.27147 14.8919 4.28017 15.4823 6.33164 15.48C13.2762 15.48 17.0725 9.71284 17.0725 4.71109C17.0725 4.54859 17.0685 4.38447 17.0612 4.22197C17.7996 3.68651 18.4371 3.02345 18.9436 2.26384L18.9452 2.26141Z" fill="white"/>
</svg>
