<svg width="24" height="24" viewBox="0 0 24 24" fill="none" xmlns="http://www.w3.org/2000/svg">
<path d="M12.375 0.890625C6.03296 0.890625 0.890625 6.03296 0.890625 12.375C0.890625 18.717 6.03296 23.8594 12.375 23.8594C18.717 23.8594 23.8594 18.717 23.8594 12.375C23.8594 6.03296 18.717 0.890625 12.375 0.890625ZM18.9375 7.39417L17.8916 8.39648C17.7993 8.4657 17.7557 8.57849 17.7737 8.68872V16.0638C17.7557 16.1766 17.7993 16.2894 17.8916 16.3561L18.917 17.3584V17.5814H13.7695V17.3687L14.8282 16.3407C14.9333 16.2356 14.9333 16.2048 14.9333 16.0485V10.0807L11.9854 17.5558H11.588L8.15808 10.0807V15.0923C8.12732 15.3025 8.20166 15.5153 8.35034 15.6665L9.72949 17.3353V17.5583H5.8125V17.3353L7.19165 15.6665C7.26431 15.5914 7.31839 15.5004 7.34955 15.4007C7.38071 15.301 7.38809 15.1954 7.37109 15.0923V9.29883C7.38904 9.13733 7.32751 8.98096 7.20447 8.87073L5.97913 7.39417V7.17114H9.78589L12.7236 13.6183L15.3102 7.17627H18.9375V7.39417Z" fill="white"/>
</svg>
